HIERARCHY
ROOT root
{
	OFFSET 0.000000 0.000000 0.000000
	CHANNELS 6 Xposition Yposition Zposition Zrotation Yrotation Xrotation
	JOINT lhip
	{
		OFFSET 0.058581 -0.082280 -0.017664
		CHANNELS 3 Zrotation Yrotation Xrotation
		JOINT lknee
		{
			OFFSET 0.043451 -0.386469 0.008037
			CHANNELS 3 Zrotation Yrotation Xrotation
			JOINT lankle
			{
				OFFSET -0.014790 -0.426874 -0.037428
				CHANNELS 3 Zrotation Yrotation Xrotation
				JOINT ltoe
				{
					OFFSET 0.041054 -0.060286 0.122042
					CHANNELS 3 Zrotation Yrotation Xrotation
					End Site
					{
						OFFSET 0.000000 0.000000 0.000000
					}
				}
			}
		}
	}
	JOINT rhip
	{
		OFFSET -0.060310 -0.090513 -0.013543
		CHANNELS 3 Zrotation Yrotation Xrotation
		JOINT rknee
		{
			OFFSET -0.043257 -0.383688 -0.004843
			CHANNELS 3 Zrotation Yrotation Xrotation
			JOINT rankle
			{
				OFFSET 0.019056 -0.420046 -0.034562
				CHANNELS 3 Zrotation Yrotation Xrotation
				JOINT rtoe
				{
					OFFSET -0.034840 -0.062106 0.130323
					CHANNELS 3 Zrotation Yrotation Xrotation
					End Site
					{
						OFFSET 0.000000 0.000000 0.000000
					}
				}
			}
		}
	}
	JOINT lowerback
	{
		OFFSET 0.004439 0.124404 -0.038385
		CHANNELS 3 Zrotation Yrotation Xrotation
		JOINT upperback
		{
			OFFSET 0.004488 0.137956 0.026820
			CHANNELS 3 Zrotation Yrotation Xrotation
			JOINT chest
			{
				OFFSET -0.002265 0.056032 0.002855
				CHANNELS 3 Zrotation Yrotation Xrotation
				JOINT lowerneck
				{
					OFFSET -0.013390 0.211636 -0.033468
					CHANNELS 3 Zrotation Yrotation Xrotation
					JOINT upperneck
					{
						OFFSET 0.010113 0.088937 0.050410
						CHANNELS 3 Zrotation Yrotation Xrotation
						End Site
						{
							OFFSET 0.000000 0.000000 0.000000
						}
					}
				}
				JOINT lclavicle
				{
					OFFSET 0.071702 0.114000 -0.018898
					CHANNELS 3 Zrotation Yrotation Xrotation
					JOINT lshoulder
					{
						OFFSET 0.122921 0.045205 -0.019046
						CHANNELS 3 Zrotation Yrotation Xrotation
						JOINT lelbow
						{
							OFFSET 0.255332 -0.015649 -0.022946
							CHANNELS 3 Zrotation Yrotation Xrotation
							JOINT lwrist
							{
								OFFSET 0.265709 0.012698 -0.007375
								CHANNELS 3 Zrotation Yrotation Xrotation
								End Site
								{
									OFFSET 0.000000 0.000000 0.000000
								}
							}
						}
					}
				}
				JOINT rclavicle
				{
					OFFSET -0.082954 0.112472 -0.023707
					CHANNELS 3 Zrotation Yrotation Xrotation
					JOINT rshoulder
					{
						OFFSET -0.113228 0.046853 -0.008472
						CHANNELS 3 Zrotation Yrotation Xrotation
						JOINT relbow
						{
							OFFSET -0.260127 -0.014369 -0.031269
							CHANNELS 3 Zrotation Yrotation Xrotation
							JOINT rwrist
							{
								OFFSET -0.269108 0.006794 -0.006027
								CHANNELS 3 Zrotation Yrotation Xrotation
								End Site
								{
									OFFSET 0.000000 0.000000 0.000000
								}
							}
						}
					}
				}
			}
		}
	}
}
MOTION
Frames: 8
Frame Time: 0.033333
2.114878 0.354959 0.984840 -82.579738 -1.311688 89.901204 -4.106898 -4.534365 -2.628654 -2.157077 -10.273370 7.731631 7.109103 13.745437 -15.575027 0.000000 -0.000000 0.000000 -2.587852 -2.858380 -12.310449 -0.948846 -10.057029 30.142225 2.234773 -14.772542 -22.376544 0.000000 -0.000000 0.000000 2.236723 1.161948 7.914298 0.315067 -0.659948 -2.374004 -1.795187 0.557940 4.520571 1.784873 -0.944155 -1.879171 -2.144151 -9.226659 10.613448 -23.555377 6.981994 0.473538 -60.420306 -3.587071 10.583008 6.862853 -31.114627 14.696300 -1.914584 1.147006 -2.913618 24.758919 -0.120161 -1.370909 57.709246 4.063108 14.629974 -13.111945 28.145942 3.803142 -16.145337 -2.057442 3.490277 
2.114596 0.353568 0.985805 -82.016333 -0.980918 89.845768 -3.837229 -4.533903 -2.728526 -2.229612 -10.781120 8.013642 6.930622 13.661035 -15.667460 0.000000 -0.000000 0.000000 -1.777290 -1.872088 -12.805477 0.104149 -8.525186 29.959106 2.207210 -13.301271 -24.228762 0.000000 -0.000000 0.000000 2.009697 0.976204 8.075872 0.539805 -0.646000 -2.232440 -1.733156 0.530652 4.484974 1.904002 -0.772997 -2.017204 -2.110451 -9.985118 10.427852 -23.391661 6.686225 0.281065 -60.045717 -3.773398 10.924813 6.837869 -32.031103 13.928069 -0.443595 1.313622 -3.174095 24.955054 -0.105566 -1.376527 57.741543 3.842532 14.627955 -13.197827 28.704261 3.407796 -16.343998 -2.111453 2.863292 
2.113137 0.353032 0.986668 -81.771189 -0.641077 89.875389 -3.460360 -4.763055 -2.610080 -2.265782 -10.982027 7.901496 6.718145 13.704189 -15.601519 0.000000 -0.000000 0.000000 -0.763273 -0.523062 -12.623905 0.855139 -6.669718 27.767407 2.607048 -11.730033 -23.767640 0.000000 -0.000000 0.000000 1.623607 0.948889 7.814657 0.845838 -0.521329 -1.812034 -1.478949 0.536543 4.428846 2.025051 -0.634036 -1.790700 -1.905028 -10.120854 10.250306 -23.158113 6.421205 0.251124 -60.004735 -4.055191 11.289627 6.913568 -32.725544 12.981727 0.708980 1.332205 -3.398469 24.846190 -0.125794 -1.532661 57.808812 3.203990 15.040576 -13.523892 28.883375 4.259699 -15.338592 -1.455515 3.630284 
2.109975 0.352867 0.988505 -81.737543 -0.517887 89.421141 -3.270629 -4.497158 -1.766689 -2.370547 -11.307127 7.700753 6.623005 13.479357 -15.755114 0.000000 -0.000000 0.000000 0.144743 -0.108800 -11.406219 0.474892 -5.168967 25.286284 2.399260 -12.218001 -20.393313 0.000000 -0.000000 0.000000 1.085200 0.910323 8.170775 0.981284 -0.581285 -1.732954 -1.153282 0.603465 4.149964 1.688839 -1.180081 -1.153685 -1.270858 -9.372106 9.949578 -23.204246 6.451889 0.265046 -59.339106 -3.961606 11.329390 6.285608 -33.694623 12.660182 1.837545 1.546657 -3.954735 24.725062 0.006190 -1.489669 57.978674 2.678196 15.549684 -13.414640 29.224727 3.612563 -15.941901 -2.145069 3.843137 
2.106913 0.351715 0.989314 -81.196056 -0.466419 89.223682 -3.172062 -4.428007 -1.400536 -2.482763 -11.578294 7.783937 6.478990 12.903041 -16.013228 0.000000 -0.000000 0.000000 0.634615 -0.251330 -10.504378 -0.197502 -4.896005 24.373742 1.864288 -13.025504 -19.022438 0.000000 -0.000000 0.000000 0.895973 0.884004 8.206312 1.023853 -0.889929 -1.622048 -1.161057 0.499413 3.930122 1.608414 -1.466293 -0.877102 -0.900835 -9.136229 9.807930 -23.263454 6.525572 0.273568 -58.649074 -3.989411 11.357615 5.695728 -34.503438 12.789128 1.788583 1.089554 -4.678073 24.725178 -0.158765 -1.556981 58.045928 2.367886 15.861733 -13.195161 29.554470 3.481747 -16.346326 -2.336253 3.904223 
2.103859 0.350571 0.989239 -80.881891 -0.420574 89.294468 -3.041815 -4.246640 -1.224724 -2.545867 -11.661553 7.638098 6.236306 12.364748 -16.118573 0.000000 -0.000000 0.000000 0.789048 -0.336189 -9.599107 -0.270292 -4.700665 23.068890 1.662281 -12.965958 -18.875315 0.000000 -0.000000 0.000000 1.093394 0.655212 7.952465 0.810976 -1.254373 -1.149348 -1.403843 0.595123 3.460845 1.516586 -1.519799 -0.744937 -0.493737 -8.748731 9.326577 -23.439700 6.892666 -0.178444 -58.033546 -3.734229 11.028157 5.178088 -35.062858 13.290995 1.444035 0.876685 -4.585171 24.588199 -0.308156 -1.388964 58.387199 2.440492 15.832796 -12.966913 29.642709 3.913534 -16.404472 -2.312383 4.191164 
2.101367 0.350080 0.990252 -81.009276 -0.330525 89.532577 -2.840377 -3.960329 -1.137307 -2.596554 -11.563540 7.299696 6.058832 12.041420 -16.090060 0.000000 -0.000000 0.000000 0.877861 -0.570078 -9.160904 -0.174765 -4.532433 22.040071 1.790714 -12.681188 -18.589159 0.000000 -0.000000 0.000000 1.074621 0.864313 7.508780 0.711435 -1.039625 -1.399638 -1.348594 0.597048 3.670634 1.608669 -1.767547 -0.560339 -0.355883 -8.588126 9.496082 -23.819345 6.727097 0.022343 -57.996737 -3.940097 10.738426 5.814526 -34.661050 12.415500 1.458609 0.729580 -3.799119 24.582145 -0.425138 -1.320820 58.271824 2.215859 15.523229 -12.722541 29.640111 4.127754 -16.302184 -2.363380 4.212805 
2.098826 0.349809 0.991666 -81.036698 -0.158416 89.786254 -2.631267 -3.495756 -1.184275 -2.531459 -11.582849 7.160679 5.929533 11.652348 -16.004357 0.000000 -0.000000 0.000000 1.024657 -1.137529 -8.793979 -0.055569 -4.416726 21.034865 1.862071 -12.373324 -18.099060 0.000000 -0.000000 0.000000 1.159680 1.041693 7.279919 0.641614 -0.941961 -1.706154 -1.226829 0.598907 3.658563 1.372682 -2.461375 -0.267411 -0.073243 -8.480391 9.254360 -24.074119 6.605762 0.196142 -58.393278 -3.848407 10.408593 6.539236 -33.952469 11.497072 2.179745 1.319888 -3.460310 24.431645 -0.403234 -1.156034 58.119758 1.885658 15.093453 -12.436416 29.588635 4.349845 -16.298060 -2.555679 4.222933 
